<svg width="22" height="21" viewBox="0 0 22 21" fill="none" xmlns="http://www.w3.org/2000/svg">
<path fill-rule="evenodd" clip-rule="evenodd" d="M2 0C0.895431 0 0 0.89543 0 2V19C0 20.1046 0.895431 21 2 21H11.3661L11.3694 12.8539L8.5957 12.8424L8.59737 9.72441L11.3694 9.71621C11.3636 8.88605 11.3653 8.05507 11.3678 7.22492C11.3736 6.22003 11.6615 5.17824 12.3489 4.41453C13.0738 3.58765 14.1972 3.20539 15.2824 3.17503C16.1929 3.16191 17.1049 3.20046 18.0104 3.2948L18.0112 6.15359C17.4054 6.15441 16.7987 6.15441 16.1929 6.15277C15.1751 6.16712 14.6784 6.51576 14.6375 7.55304L14.6308 9.71703L17.8598 9.71785L17.4328 12.8564L14.6308 12.8531L14.635 21H19.3043C20.4089 21 21.3043 20.1046 21.3043 19V2C21.3043 0.895431 20.4089 0 19.3043 0H2Z" fill="#C4C4C4"/>
</svg>
