<svg width="22" height="21" viewBox="0 0 22 21" fill="none" xmlns="http://www.w3.org/2000/svg">
<path d="M18.8794 0H3.81655C2.09591 0 0.695801 1.38011 0.695801 3.07617V17.9238C0.695801 19.6199 2.09591 21 3.81655 21H18.8794C20.6 21 22.0001 19.6199 22.0001 17.9238V3.07617C22.0001 1.38011 20.6 0 18.8794 0ZM11.3896 15.9961C8.29207 15.9961 5.77222 13.5122 5.77222 10.459C5.77222 7.40572 8.29207 4.92188 11.3896 4.92188C14.4871 4.92188 17.0069 7.40572 17.0069 10.459C17.0069 13.5122 14.4871 15.9961 11.3896 15.9961ZM17.6311 6.15234C16.5986 6.15234 15.7586 5.32434 15.7586 4.30664C15.7586 3.28894 16.5986 2.46094 17.6311 2.46094C18.6635 2.46094 19.5035 3.28894 19.5035 4.30664C19.5035 5.32434 18.6635 6.15234 17.6311 6.15234Z" fill="#C4C4C4"/>
<path d="M17.631 3.69153C17.2866 3.69153 17.0068 3.96726 17.0068 4.30676C17.0068 4.64626 17.2866 4.922 17.631 4.922C17.9754 4.922 18.2551 4.64626 18.2551 4.30676C18.2551 3.96726 17.9754 3.69153 17.631 3.69153Z" fill="#C4C4C4"/>
<path d="M11.3896 6.15234C8.98073 6.15234 7.02051 8.08456 7.02051 10.459C7.02051 12.8334 8.98073 14.7656 11.3896 14.7656C13.7984 14.7656 15.7586 12.8334 15.7586 10.459C15.7586 8.08456 13.7984 6.15234 11.3896 6.15234Z" fill="#C4C4C4"/>
</svg>
