<svg width="1920" height="749" viewBox="0 0 1920 749" fill="none" xmlns="http://www.w3.org/2000/svg">
<path opacity="0.2" d="M1307.43 68.0433C1694.5 52.6405 1873.7 116.767 1921 138.876V231H1V55.3506C316.115 -88.7719 727.086 95.9137 1036.95 80.3264C1224.15 70.9093 1214.82 71.7282 1307.43 68.0433Z" fill="url(#paint0_linear)"/>
<path opacity="0.35" d="M1 747H1920V142.107C1356.29 171.614 1390.28 -11.9844 834.566 51.1277C534.294 85.2296 285.518 -7.06653 1 57.6848V747Z" fill="url(#paint1_linear)"/>
<path d="M1920 749H0V57C432 183.935 504 -8.92426 1081.33 93.8521C1374.76 146.088 1528 194.991 1920 142.579V749Z" fill="url(#paint2_linear)"/>
<defs>
<linearGradient id="paint0_linear" x1="1864.37" y1="294.462" x2="-97.3611" y2="-569.785" gradientUnits="userSpaceOnUse">
<stop stop-color="#007F8B"/>
<stop offset="1" stop-color="#4DB6BF"/>
</linearGradient>
<linearGradient id="paint1_linear" x1="1760" y1="-257" x2="831.106" y2="1439.59" gradientUnits="userSpaceOnUse">
<stop stop-color="#007F8B"/>
<stop offset="1" stop-color="#4DB6BF"/>
</linearGradient>
<linearGradient id="paint2_linear" x1="1920" y1="800.593" x2="235.256" y2="-932.127" gradientUnits="userSpaceOnUse">
<stop stop-color="white"/>
<stop offset="1" stop-color="white"/>
</linearGradient>
</defs>
</svg>
