<svg width="25" height="25" viewBox="0 0 25 25" fill="none" xmlns="http://www.w3.org/2000/svg">
<path fill-rule="evenodd" clip-rule="evenodd" d="M2 0C0.895431 0 0 0.89543 0 2V22.3478C0 23.4524 0.89543 24.3478 2 24.3478H12.9898L12.9936 14.9035L9.82359 14.8902L9.82549 11.2751L12.9936 11.2656C12.9869 10.3031 12.9888 9.33968 12.9917 8.37718C12.9983 7.2121 13.3274 6.00422 14.113 5.11876C14.9414 4.16006 16.2254 3.71685 17.4656 3.68166C18.5061 3.66645 19.5485 3.71115 20.5832 3.82052L20.5842 7.13506C19.8918 7.13601 19.1985 7.13601 18.5061 7.13411C17.3429 7.15075 16.7753 7.55497 16.7285 8.75761L16.7209 11.2666L20.4111 11.2675L19.9232 14.9064L16.7209 14.9026L16.7256 24.3478H22.3478C23.4524 24.3478 24.3478 23.4524 24.3478 22.3478V2C24.3478 0.895431 23.4524 0 22.3478 0H2Z" fill="#0197A4"/>
</svg>
