<svg width="351" height="266" viewBox="0 0 351 266" fill="none" xmlns="http://www.w3.org/2000/svg">
<path opacity="0.1" d="M33.1777 59.0627H15.3438C18.2427 54.5207 21.4102 50.1561 24.8293 45.9923C27.4786 42.7343 30.2753 39.5597 33.1777 36.5005V59.0627Z" fill="#4DB6BF"/>
<path opacity="0.1" d="M33.1777 60.4351V107.079H0.767822C0.767822 106.945 0.790246 106.807 0.799857 106.672C0.828688 106.303 0.857519 105.935 0.889555 105.569C0.924793 105.139 0.963235 104.707 1.00488 104.286C1.04653 103.866 1.09138 103.353 1.13943 102.888C1.18748 102.423 1.23233 101.952 1.28679 101.487C1.34125 101.022 1.3893 100.557 1.44696 100.095C1.50463 99.6336 1.55588 99.1654 1.61675 98.7036C1.6648 98.3188 1.71606 97.9372 1.76731 97.5524C1.84099 97.0105 1.91788 96.4654 2.00117 95.9266C2.00117 95.8465 2.0236 95.7631 2.03641 95.6861C2.62111 91.7424 3.4178 87.8332 4.42302 83.9753C5.47524 79.9284 6.81889 75.9632 8.44342 72.1106C10.17 68.0804 12.1916 64.1833 14.4916 60.4511L33.1777 60.4351Z" fill="#4DB6BF"/>
<path opacity="0.1" d="M40.9398 108.449V152.81H110.382V108.449H40.9398ZM40.9398 154.179V192.275C41.3371 192.358 41.7311 192.438 42.1219 192.506C42.6537 192.608 43.1823 192.701 43.7237 192.781C43.8262 192.798 43.9319 192.814 44.044 192.823C44.2554 192.858 44.4733 192.887 44.6847 192.916C45.2197 192.99 45.7515 193.051 46.2865 193.099C46.5395 193.125 46.7958 193.147 47.0521 193.166L47.6704 193.214C48.0067 193.24 48.3399 193.259 48.6699 193.269C48.8749 193.269 49.0799 193.288 49.2914 193.295C49.4515 193.295 49.6117 193.295 49.7783 193.295C49.9449 193.295 50.1819 193.295 50.3837 193.295C50.6592 193.295 50.9348 193.295 51.207 193.295H51.5754C51.851 193.295 52.1265 193.295 52.3988 193.269H52.418C52.607 193.269 52.7992 193.269 52.9914 193.243C53.0447 193.246 53.0982 193.246 53.1516 193.243C53.3117 193.243 53.4719 193.243 53.6257 193.221H53.7378L54.811 193.137C55.1634 193.105 55.519 193.064 55.8778 193.025L56.6082 192.939C59.5797 192.522 62.5181 191.896 65.4018 191.066C71.8793 189.257 78.2158 186.727 84.6901 184.874C93.0608 182.485 102.309 181.311 110.398 184.232V154.179H40.9398ZM110.382 59.0627V0.00524416C102.779 -0.0772073 95.1973 0.812905 87.8199 2.65397C70.2359 7.07598 54.4586 16.6672 40.9398 28.9167V59.0595H44.4252V60.4288H40.9398V107.08H110.382V60.432H58.7353V59.0627H110.382ZM199.577 39.114C195.227 38.96 190.902 37.5812 186.991 35.4519C179.511 31.3794 173.536 25.0911 166.86 19.7841C152.989 8.73063 135.786 2.06073 118.138 0.40608V59.0627H217.27L217.517 58.803L199.577 39.114ZM208.608 37.5106L218.183 48.0285V34.7529C214.977 35.1505 212.167 36.0965 208.621 37.4978L208.608 37.5106ZM218.183 201.735V154.179H197.78C197.726 153.977 197.671 153.772 197.607 153.567C197.668 153.772 197.719 153.977 197.777 154.179H118.151V188.571C118.907 189.132 119.653 189.722 120.393 190.322C121.191 190.963 121.979 191.64 122.77 192.304L123.568 192.964C123.949 193.285 124.333 193.606 124.721 193.907C125.49 194.531 126.266 195.147 127.05 195.754C127.438 196.075 127.835 196.363 128.229 196.665C134.484 201.452 141.083 205.773 147.972 209.591C149.516 210.446 151.074 211.281 152.646 212.095C153.694 212.631 154.747 213.163 155.805 213.679C157.394 214.455 158.995 215.204 160.61 215.924C175.495 222.613 191.236 227.202 207.381 229.562C210.967 230.092 214.567 230.509 218.18 230.813V201.731H218.5L218.183 201.735ZM118.151 60.432V107.08H218.196V60.432H118.151ZM118.151 108.449V152.81H218.196V108.449H118.151ZM225.961 34.6952V49.5036L238.183 36.0804C234.134 35.4263 230.06 34.9592 225.961 34.6791V34.6952ZM225.961 108.465V152.81H323.268V108.449L225.961 108.465ZM322.912 205.255L323.255 154.179H225.961V231.323C232.229 231.586 238.506 231.511 244.766 231.098H244.875C247.865 230.91 250.841 230.636 253.803 230.277H253.87C269.673 228.436 285.126 224.309 299.744 218.025L322.912 205.255ZM342.031 115.754C341.666 114.891 341.284 114.035 340.897 113.188C340.173 111.585 339.407 110.027 338.619 108.468H331.027V152.81H350.222C350.212 140.253 347.038 127.426 342.04 115.738L342.031 115.754ZM331.027 154.195V198.127C336.434 192.939 341.002 187.003 344.292 180.218C348.249 172.047 350.059 163.2 350.206 154.189L331.027 154.195ZM331.027 95.5388V107.083H337.908C335.826 103.109 333.532 99.2499 331.036 95.5228L331.027 95.5388ZM265.035 43.3981C264.528 43.2057 264.022 43.0101 263.513 42.8209C258.141 40.8351 252.651 39.1837 247.076 37.8762L228.374 58.4214L228.015 58.803L228.255 59.066H294.817C285.547 52.6784 275.553 47.4137 265.044 43.3821L265.035 43.3981ZM296.768 60.448H227.326L225.961 61.6986V107.08H237.923H237.942H323.281V85.0978C315.561 75.7522 306.651 67.4596 296.778 60.432L296.768 60.448Z" fill="#4DB6BF"/>
<path opacity="0.1" d="M0.665353 108.452H33.1777V152.81H3.04556C2.96547 153.266 2.88858 153.724 2.80529 154.183H33.1777V189.956C33.1233 189.94 33.0752 189.921 33.0239 189.902C32.1654 189.562 31.3133 189.203 30.4611 188.818L29.9165 188.571C29.0623 188.167 28.208 187.74 27.3537 187.288C27.0558 187.131 26.7579 186.968 26.4632 186.801C21.7206 184.142 17.4123 180.772 13.6876 176.809C13.5787 176.703 13.4762 176.591 13.3672 176.488C12.8483 175.924 12.3389 175.353 11.8456 174.77L11.301 174.128C10.7179 173.413 10.1541 172.679 9.60633 171.935C9.52624 171.826 9.44936 171.717 9.36607 171.614C7.13818 168.522 5.28833 165.174 3.85604 161.641C3.81119 161.536 3.77275 161.42 3.73111 161.321C3.29116 160.188 2.9014 159.044 2.56183 157.89C2.41447 157.405 2.27351 156.928 2.15178 156.424C2.10693 156.277 2.06849 156.132 2.03325 155.988C0.213658 148.879 -0.000976562 141.494 -0.000976562 134.16C-0.000976562 133.304 -0.000976562 132.445 -0.000976562 131.595C-0.000976562 128.629 0.0342621 125.643 0.0855182 122.661C0.0855182 121.888 0.117553 121.119 0.13357 120.343C0.178419 118.374 0.24249 116.405 0.325781 114.436C0.345002 113.887 0.37063 113.342 0.399461 112.797C0.399461 112.483 0.415479 112.169 0.447515 111.854C0.524399 110.713 0.588469 109.581 0.665353 108.452Z" fill="#4DB6BF"/>
<path opacity="0.1" d="M65.3858 67.1116V107.08H40.9398V67.1116H44.4252V53.5793H58.7321V67.1116H65.3858Z" fill="#4DB6BF"/>
<path opacity="0.1" d="M65.3857 108.449H40.943V152.807H65.3857V108.449Z" fill="#4DB6BF"/>
<path opacity="0.1" d="M40.9398 154.183H65.3857V191.059C62.5021 191.889 59.5636 192.514 56.5921 192.929L55.8617 193.019C55.5029 193.06 55.1474 193.096 54.795 193.131C54.4426 193.166 54.0774 193.192 53.7218 193.214H53.6097C53.4559 193.214 53.2893 193.234 53.1388 193.237H52.9754C52.7832 193.237 52.591 193.256 52.3988 193.262C52.1265 193.279 51.8542 193.282 51.5754 193.285C51.4569 193.285 51.3448 193.285 51.2263 193.285C50.9508 193.285 50.6785 193.285 50.403 193.285H49.7975C49.6341 193.285 49.4772 193.285 49.3074 193.285L48.6891 193.262C48.3687 193.262 48.0228 193.227 47.6896 193.205L47.0745 193.16L46.3089 193.089C45.7707 193.041 45.2357 192.98 44.7071 192.907L44.0664 192.817L43.7461 192.772C43.2111 192.688 42.6825 192.599 42.1443 192.496C41.7503 192.429 41.3595 192.345 40.9622 192.265L40.9398 154.183Z" fill="#4DB6BF"/>
<path opacity="0.1" d="M218.199 108.449V152.81H118.151V133.676H171.441V144.963H198.04V108.449H218.199Z" fill="#4DB6BF"/>
<path opacity="0.1" d="M218.516 201.744H218.196V230.845C214.587 230.539 210.988 230.123 207.4 229.597C191.247 227.23 175.5 222.631 160.61 215.93C156.311 213.994 152.099 211.879 147.975 209.588C141.087 205.767 134.487 201.447 128.229 196.661C126.657 195.456 125.105 194.222 123.574 192.961C122.514 192.086 121.46 191.188 120.393 190.315C119.653 189.716 118.907 189.126 118.151 188.561V154.183H197.774C197.719 153.977 197.665 153.772 197.607 153.57C197.668 153.772 197.726 153.977 197.78 154.183H218.196V201.725C218.305 201.728 218.411 201.738 218.516 201.744Z" fill="#4DB6BF"/>
<path opacity="0.1" d="M270.766 59.0628H257.631V54.9775H263.519V42.8081C264.03 42.9941 264.538 43.1854 265.044 43.3821V54.9775H270.766V59.0628Z" fill="#4DB6BF"/>
<path opacity="0.1" d="M302.41 107.079H237.93C237.93 107.079 237.93 107.079 237.952 107.096L237.923 107.079H225.961V62.3943H229.351V95.4232H244.84V75.8624H257.634V60.4351H270.769V75.8752H283.563V95.436H302.41V107.079Z" fill="#4DB6BF"/>
<path opacity="0.1" d="M225.961 108.449V152.81H302.41V108.449H225.961ZM323.162 205.028L323.268 169.914H302.41V154.202H225.961V231.322C232.229 231.586 238.506 231.511 244.766 231.098H244.875C247.865 230.91 250.841 230.636 253.803 230.277H253.87C269.673 228.436 285.126 224.309 299.744 218.024" fill="#4DB6BF"/>
<path opacity="0.1" d="M332.385 154.183H350.219C350.062 163.19 348.255 172.037 344.302 180.208C341.012 186.997 336.441 192.932 331.04 198.117V169.899H332.385V154.183Z" fill="#4DB6BF"/>
<path opacity="0.1" d="M350.229 152.81H332.385V115.738H342.04C347.038 127.426 350.212 140.253 350.229 152.81Z" fill="#4DB6BF"/>
<path opacity="0.1" d="M218.199 108.449H207.4V117.86H218.199V108.449Z" fill="#4DB6BF"/>
<path opacity="0.1" d="M218.199 132.893H207.4V146.903H218.199V132.893Z" fill="#4DB6BF"/>
<path opacity="0.1" d="M218.199 161.933H207.4V175.943H218.199V161.933Z" fill="#4DB6BF"/>
<path opacity="0.1" d="M218.196 201.725C218.305 201.725 218.411 201.725 218.516 201.744H218.196V204.999H207.4V190.973H218.196V201.725Z" fill="#4DB6BF"/>
<path opacity="0.1" d="M218.196 220.006V230.829C214.587 230.523 210.988 230.107 207.4 229.581V220.006H218.196Z" fill="#4DB6BF"/>
<path opacity="0.1" d="M164.432 154.179H118.151V158.123H164.432V154.179Z" fill="#4DB6BF"/>
<path opacity="0.1" d="M164.432 171.053H118.151V177.396H164.432V171.053Z" fill="#4DB6BF"/>
<path opacity="0.1" d="M164.428 190.325V196.668H128.229C126.657 195.467 125.104 194.233 123.571 192.968C122.511 192.092 121.46 191.194 120.39 190.325H164.428Z" fill="#4DB6BF"/>
<path opacity="0.1" d="M164.428 209.594V215.93H160.607C156.312 213.992 152.101 211.876 147.975 209.584L164.428 209.594Z" fill="#4DB6BF"/>
<path opacity="0.1" d="M253.88 112.749H244.769V121.869H253.88V112.749Z" fill="#4DB6BF"/>
<path opacity="0.1" d="M56.6145 70.2571H47.5038V79.3769H56.6145V70.2571Z" fill="#4DB6BF"/>
<path opacity="0.1" d="M56.6145 91.4404H47.5038V100.56H56.6145V91.4404Z" fill="#4DB6BF"/>
<path opacity="0.1" d="M56.6145 112.624H47.5038V121.744H56.6145V112.624Z" fill="#4DB6BF"/>
<path opacity="0.1" d="M56.6145 133.804H47.5038V142.924H56.6145V133.804Z" fill="#4DB6BF"/>
<path opacity="0.1" d="M56.6145 176.171H47.5038V185.291H56.6145V176.171Z" fill="#4DB6BF"/>
<path opacity="0.1" d="M253.88 135.244H244.769V144.364H253.88V135.244Z" fill="#4DB6BF"/>
<path opacity="0.1" d="M253.88 157.736H244.769V166.855H253.88V157.736Z" fill="#4DB6BF"/>
<path opacity="0.1" d="M253.88 180.23H244.769V189.35H253.88V180.23Z" fill="#4DB6BF"/>
<path opacity="0.1" d="M253.88 202.725H244.769V211.845H253.88V202.725Z" fill="#4DB6BF"/>
<path opacity="0.1" d="M288.66 202.725H279.55V211.845H288.66V202.725Z" fill="#4DB6BF"/>
<path opacity="0.1" d="M244.769 231.098V225.217H253.877V230.261L244.769 231.098Z" fill="#4DB6BF"/>
<path opacity="0.1" d="M1.99805 95.6797V100.897H33.1778V95.6797H1.99805ZM5.10545 100.57H2.56186V96.0004H5.12467L5.10545 100.57ZM8.20964 100.57H5.64684V96.0004H8.20964V100.57ZM11.3074 100.57H8.74463V96.0004H11.3074V100.57ZM14.4116 100.57H11.852V96.0004H14.4148L14.4116 100.57ZM17.5126 100.57H14.9498V96.0004H17.5126V100.57ZM20.6168 100.57H18.054V96.0004H20.6168V100.57ZM23.721 100.57H21.1582V96.0004H23.721V100.57ZM26.822 100.57H24.2592V96.0004H26.822V100.57ZM29.923 100.57H27.3602V96.0004H29.923V100.57ZM33.024 100.57H30.4612V96.0004H33.024V100.57Z" fill="#4DB6BF"/>
<path opacity="0.1" d="M1.99805 110.86V116.077H33.1778V110.86H1.99805ZM5.10545 115.747H2.56186V111.19H5.12467L5.10545 115.747ZM8.20964 115.747H5.64684V111.19H8.20964V115.747ZM11.3074 115.747H8.74463V111.19H11.3074V115.747ZM14.4116 115.747H11.852V111.19H14.4148L14.4116 115.747ZM17.5126 115.747H14.9498V111.19H17.5126V115.747ZM20.6168 115.747H18.054V111.19H20.6168V115.747ZM23.721 115.747H21.1582V111.19H23.721V115.747ZM26.822 115.747H24.2592V111.19H26.822V115.747ZM29.923 115.747H27.3602V111.19H29.923V115.747ZM33.024 115.747H30.4612V111.19H33.024V115.747Z" fill="#4DB6BF"/>
<path opacity="0.1" d="M1.99805 126.047V131.274H33.1778V126.047H1.99805ZM5.10545 130.934H2.56186V126.374H5.12467L5.10545 130.934ZM8.20964 130.934H5.64684V126.374H8.20964V130.934ZM11.3074 130.934H8.74463V126.374H11.3074V130.934ZM14.4116 130.934H11.852V126.374H14.4148L14.4116 130.934ZM17.5126 130.934H14.9498V126.374H17.5126V130.934ZM20.6168 130.934H18.054V126.374H20.6168V130.934ZM23.721 130.934H21.1582V126.374H23.721V130.934ZM26.822 130.934H24.2592V126.374H26.822V130.934ZM29.923 130.934H27.3602V126.374H29.923V130.934ZM33.024 130.934H30.4612V126.374H33.024V130.934Z" fill="#4DB6BF"/>
<path opacity="0.1" d="M237.93 107.079H237.949H237.93ZM218.196 201.722H218.516H218.196ZM197.607 153.567C197.668 153.772 197.719 153.977 197.777 154.179C197.726 153.977 197.671 153.772 197.607 153.567ZM237.93 107.07H237.949H237.93ZM44.438 59.053V60.4222H58.748V59.053H44.438ZM218.196 201.722H218.516H218.196ZM197.607 153.567C197.668 153.772 197.719 153.977 197.777 154.179C197.726 153.977 197.671 153.772 197.607 153.567ZM237.93 107.07H237.949H237.93ZM218.196 201.712H218.516H218.196ZM197.607 153.567C197.668 153.772 197.719 153.977 197.777 154.179C197.726 153.977 197.671 153.772 197.607 153.567Z" fill="#4DB6BF"/>
<path d="M257.806 96.576H208.999V124.494H257.806V96.576Z" fill="#E0E0E0"/>
<path d="M237.112 100.871V101.262V120.068C237.112 120.068 236.851 120.329 237.112 120.329C240.756 117.726 240.626 103.279 237.112 100.871Z" fill="#BABABA"/>
<path d="M237.112 120.068H211.472V101.261H237.112C237.112 101.261 239.389 104.125 239.389 110.763C239.389 117.4 237.112 120.068 237.112 120.068Z" fill="#303030"/>
<path d="M211.472 101.261H211.212V120.068H211.472V101.261Z" fill="white"/>
<path d="M241.797 96.576H241.342V124.494H241.797V96.576Z" fill="white"/>
<path d="M257.806 96.576H257.35V124.494H257.806V96.576Z" fill="white"/>
<path d="M242.708 96.576H242.253V124.494H242.708V96.576Z" fill="#BABABA"/>
<path d="M209.455 96.576H208.999V124.494H209.455V96.576Z" fill="#BABABA"/>
<path d="M235.42 118.181H213.164V103.279H235.42L235.55 103.734C236.591 108.355 236.591 113.105 235.55 117.726L235.42 118.181Z" fill="#3E4754"/>
<path d="M235.029 117.986L213.424 103.539H235.029L235.42 106.533C235.81 109.331 235.81 112.129 235.42 114.927L235.029 117.986Z" fill="#444E5C"/>
<path d="M255.723 98.9839H244.921V122.346H255.723V98.9839Z" fill="#C2C2C2"/>
<path d="M248.24 99.5045H245.507V102.238H248.24V99.5045Z" fill="#A3A3A3"/>
<path d="M247.979 101.977C247.979 101.977 247.849 101.131 247.199 100.546C246.483 99.96 245.702 99.6997 245.702 99.6997H247.979V101.977Z" fill="#919191"/>
<path d="M251.689 99.5045H248.956V102.238H251.689V99.5045Z" fill="#A3A3A3"/>
<path d="M251.494 101.977C251.494 101.977 251.363 101.131 250.713 100.546C249.997 99.96 249.216 99.6997 249.216 99.6997H251.494V101.977Z" fill="#919191"/>
<path d="M255.138 99.5045H252.405V102.238H255.138V99.5045Z" fill="#A3A3A3"/>
<path d="M254.878 101.977C254.878 101.977 254.747 101.131 254.097 100.546C253.381 99.96 252.6 99.6997 252.6 99.6997H254.878V101.977Z" fill="#919191"/>
<path d="M248.24 102.953H245.507V105.687H248.24V102.953Z" fill="#A3A3A3"/>
<path d="M247.979 105.491C247.979 105.491 247.849 104.645 247.199 104.06C246.483 103.474 245.702 103.214 245.702 103.214H247.979V105.491Z" fill="#919191"/>
<path d="M251.689 102.953H248.956V105.687H251.689V102.953Z" fill="#A3A3A3"/>
<path d="M251.494 105.491C251.494 105.491 251.363 104.645 250.713 104.06C249.997 103.474 249.216 103.214 249.216 103.214H251.494V105.491Z" fill="#919191"/>
<path d="M255.138 102.953H252.405V105.687H255.138V102.953Z" fill="#A3A3A3"/>
<path d="M254.878 105.491C254.878 105.491 254.747 104.645 254.097 104.06C253.381 103.474 252.6 103.214 252.6 103.214H254.878V105.491Z" fill="#919191"/>
<path d="M248.24 106.468H245.507V109.201H248.24V106.468Z" fill="#A3A3A3"/>
<path d="M247.979 109.006C247.979 109.006 247.849 108.16 247.199 107.574C246.483 106.988 245.702 106.728 245.702 106.728H247.979V109.006Z" fill="#919191"/>
<path d="M251.689 106.468H248.956V109.201H251.689V106.468Z" fill="#A3A3A3"/>
<path d="M251.494 109.006C251.494 109.006 251.363 108.16 250.713 107.574C249.997 106.988 249.216 106.728 249.216 106.728H251.494V109.006Z" fill="#919191"/>
<path d="M255.138 106.468H252.405V109.201H255.138V106.468Z" fill="#A3A3A3"/>
<path d="M254.878 109.006C254.878 109.006 254.747 108.16 254.097 107.574C253.381 106.988 252.6 106.728 252.6 106.728H254.878V109.006Z" fill="#919191"/>
<path d="M248.24 109.982H245.507V112.715H248.24V109.982Z" fill="#A3A3A3"/>
<path d="M247.979 112.52C247.979 112.52 247.849 111.674 247.199 111.088C246.483 110.502 245.702 110.242 245.702 110.242H247.979V112.52Z" fill="#919191"/>
<path d="M251.689 109.982H248.956V112.715H251.689V109.982Z" fill="#A3A3A3"/>
<path d="M251.494 112.52C251.494 112.52 251.363 111.674 250.713 111.088C249.997 110.502 249.216 110.242 249.216 110.242H251.494V112.52Z" fill="#919191"/>
<path d="M255.138 109.982H252.405V112.715H255.138V109.982Z" fill="#A3A3A3"/>
<path d="M254.878 112.52C254.878 112.52 254.747 111.674 254.097 111.088C253.381 110.502 252.6 110.242 252.6 110.242H254.878V112.52Z" fill="#919191"/>
<path d="M248.24 113.496H245.507V116.229H248.24V113.496Z" fill="#A3A3A3"/>
<path d="M247.979 115.969C247.979 115.969 247.849 115.123 247.199 114.537C246.483 113.951 245.702 113.691 245.702 113.691H247.979V115.969Z" fill="#919191"/>
<path d="M255.138 113.496H248.956V116.229H255.138V113.496Z" fill="#CF4040"/>
<path d="M254.878 115.969C254.878 115.969 254.357 115.643 252.86 114.797C251.494 114.016 249.151 113.626 249.151 113.626H254.878V115.969Z" fill="#B53838"/>
<path d="M255.138 116.945H246.092C245.767 116.945 245.442 117.205 245.442 117.596V120.98C245.442 121.305 245.702 121.63 246.092 121.63H255.138V116.945Z" fill="#919191"/>
<path d="M242.253 96.576H241.797V124.494H242.253V96.576Z" fill="#878787"/>
<path d="M237.112 120.068H211.212V120.329H237.112V120.068Z" fill="white"/>
<path d="M237.112 100.871H211.212V101.262H237.112V100.871Z" fill="#BABABA"/>
<path d="M257.35 124.494H208.999V125.795H257.35V124.494Z" fill="#BABABA"/>
<path d="M257.35 124.494H208.999V124.884H257.35V124.494Z" fill="#808080"/>
<path d="M215.442 126.576H212.773C212.318 126.576 211.992 126.186 211.992 125.795H216.287C216.287 126.251 215.897 126.576 215.442 126.576Z" fill="#858585"/>
<path d="M253.706 126.576H251.038C250.583 126.576 250.257 126.186 250.257 125.795H254.552C254.487 126.251 254.162 126.576 253.706 126.576Z" fill="#858585"/>
<path d="M121.195 81.839H48.1033V230.003H121.195V81.839Z" fill="#E0E0E0"/>
<path d="M121.195 80.5878H48.1033V81.7347H121.195V80.5878Z" fill="#9C9C9C"/>
<path d="M121.195 76H48.1033V80.5878H121.195V76Z" fill="#BABABA"/>
<path d="M121.195 76H48.1033L120.673 76.6256L121.195 80.5878V76Z" fill="#D9D9D9"/>
<path d="M121.195 229.899H48.1033V234.486H121.195V229.899Z" fill="#BABABA"/>
<path d="M61.1367 236.676H54.1508C53.0039 236.676 51.9612 235.738 51.9612 234.486H63.2221C63.3263 235.738 62.3879 236.676 61.1367 236.676Z" fill="#858585"/>
<path d="M115.147 236.676H108.161C107.014 236.676 105.972 235.738 105.972 234.486H117.233C117.337 235.738 116.294 236.676 115.147 236.676Z" fill="#858585"/>
<path d="M48.1033 230.941V229.899H121.195V230.211L48.1033 230.941Z" fill="#8C8C8C"/>
<path d="M121.195 125.319H48.1033V125.736H121.195V125.319Z" fill="#666666"/>
<path d="M121.195 81.839H48.1033V82.3603H121.195V81.839Z" fill="white"/>
<path d="M121.195 80.0664H48.1033V80.5877H121.195V80.0664Z" fill="#878787"/>
<path d="M48.1033 125.735V126.257H55.5063C55.5063 128.134 56.966 128.551 58.8428 128.551H64.9946C66.8714 128.551 68.3312 128.134 68.3312 126.257H121.299V125.735H48.1033Z" fill="white"/>
<path d="M68.2269 124.797C68.2269 122.92 66.7672 122.503 64.8903 122.503H58.7386C56.8618 122.503 55.402 122.92 55.402 124.797H47.999V125.319H121.09V124.797H68.2269Z" fill="#878787"/>
<path d="M114.73 117.499H100.029V120.418H114.73V117.499Z" fill="#878787"/>
<path d="M114.939 117.29H100.237V120.209H114.939V117.29Z" fill="#3A495E"/>
<path d="M275.875 120.255C275.875 120.255 277.277 119.843 279.917 120.255C279.999 120.379 280.081 120.75 279.834 120.791C277.442 120.668 275.958 121.864 275.958 121.864L275.875 120.255Z" fill="#BABABA"/>
<path opacity="0.15" d="M275.875 121.121C275.875 121.121 276.535 120.338 279.999 120.503C279.999 120.626 279.958 120.75 279.834 120.791C277.442 120.668 275.958 121.863 275.958 121.863L275.875 121.121Z" fill="black"/>
<path d="M260.412 106.977C260.783 106.977 261.36 105.451 261.36 105.451V103.266C261.36 103.266 257.69 103.266 258.02 103.266C259.834 104.833 260.659 104.791 260.412 106.977Z" fill="#E0E0E0"/>
<path opacity="0.05" d="M260.412 106.977C260.783 106.977 261.36 105.451 261.36 105.451V103.513C261.36 103.513 259.587 103.513 259.876 103.513C260.618 104.503 260.742 103.967 260.412 106.977Z" fill="black"/>
<path d="M272.04 103.307H261.36C261.36 103.307 259.092 108.75 260.824 119.802H276.164C276.205 119.802 281.401 103.307 272.04 103.307ZM275.71 116.132C275.381 117.74 273.071 117.699 272.783 116.09C271.958 111.884 271.917 109.204 272.082 107.596C272.247 105.823 274.762 105.658 275.216 107.348C275.216 107.39 275.216 107.39 275.216 107.431C275.958 110.647 275.999 114.771 275.71 116.132Z" fill="#E0E0E0"/>
<path opacity="0.3" d="M268.247 103.843H271.628C269.401 111.142 271.298 115.183 271.546 116.132C271.958 117.039 272.659 118.647 274.102 118.276C274.638 118.152 276.123 117.657 276.04 116.173C276.04 116.173 276.576 116.255 276.659 116.668C276.741 116.956 275.875 119.595 275.875 119.595H268.948C268.948 119.595 266.638 117.08 268.247 103.843Z" fill="white"/>
<path opacity="0.05" d="M262.474 111.513C262.474 109.286 263.298 107.389 264.535 106.359C264.453 105.451 264.824 104.627 265.36 103.843C264.783 103.843 261.896 103.843 261.69 103.843C259.587 114.235 261.319 119.595 261.319 119.595H265.896C265.896 119.595 265.443 119.637 265.03 116.998C263.504 116.132 262.474 113.987 262.474 111.513Z" fill="black"/>
<path d="M269.731 101.493H263.546C262.35 101.493 261.401 102.07 261.401 103.266V103.307H272.082C272.04 103.307 271.793 101.493 269.731 101.493Z" fill="#BABABA"/>
<path opacity="0.1" d="M266.515 102.235H262.886C262.185 102.235 261.608 102.565 261.608 103.266H267.875C267.875 103.307 267.711 102.235 266.515 102.235Z" fill="black"/>
<path opacity="0.3" d="M269.731 101.493H263.546C263.463 102.07 270.927 100.627 271.133 103.307H272.04C272.04 103.307 271.793 101.493 269.731 101.493Z" fill="white"/>
<path d="M277.03 125.327H260.865V119.802H276.205L277.03 125.327Z" fill="#BABABA"/>
<path d="M265.979 111.554C265.979 114.606 268.741 117.039 266.432 117.039C264.412 117.039 262.803 114.565 262.803 111.513C262.803 108.462 264.412 105.988 266.432 105.988C268.741 105.988 265.979 108.503 265.979 111.554Z" fill="#BABABA"/>
<path d="M265.731 111.554C265.731 114.441 268.37 116.791 266.474 116.791C264.577 116.791 263.01 114.441 263.01 111.554C263.01 108.668 264.535 106.317 266.474 106.317C268.412 106.317 265.731 108.668 265.731 111.554Z" fill="#357CAB"/>
<path d="M265.731 111.554C265.855 114.771 268.329 116.709 266.474 116.791C264.577 116.791 263.01 114.441 263.01 111.554C263.01 110.606 263.175 109.699 263.463 108.915C264.494 108.173 264.412 109.08 266.432 108.668C266.432 108.668 265.731 110.07 265.731 111.554Z" fill="#215A80"/>
<path d="M272.04 103.307C271.669 103.39 271.298 103.431 270.886 103.431H261.319L261.36 103.307H272.04Z" fill="white"/>
<path opacity="0.05" d="M272.659 105.328C272.576 104.915 274.432 104.214 275.463 105.864C278.02 110.647 276.082 115.678 276.082 115.678C276.082 115.678 276.247 110.482 275.587 107.802C274.68 104.09 272.741 106.771 272.659 105.328Z" fill="black"/>
<path d="M272.164 105.328C272.164 105.328 271.092 110.111 272.659 116.503C273.277 118.317 275.339 117.286 275.339 117.286C275.339 117.286 273.03 118.565 272.453 116.544C270.556 110.276 272.164 105.328 272.164 105.328Z" fill="white"/>
<path d="M275.628 120.049H261.36C261.071 120.049 260.865 119.925 260.865 119.802H276.164C276.164 119.967 275.917 120.049 275.628 120.049Z" fill="white"/>
<path opacity="0.2" d="M263.339 111.513C263.339 109.328 264.742 107.513 265.814 107.513C266.102 107.513 265.03 109.286 265.03 111.513C265.03 113.699 266.185 115.513 265.814 115.513C264.783 115.513 263.339 113.74 263.339 111.513Z" fill="white"/>
<path opacity="0.1" d="M265.855 120.049H261.36V125.08H265.855V120.049Z" fill="black"/>
<path opacity="0.2" d="M276.246 125.08H271.298L270.844 120.049H275.504L276.246 125.08Z" fill="white"/>
<path d="M264.989 108.214H264.123V108.255H264.989V108.214Z" fill="white"/>
<path d="M264.494 108.956H263.628V108.998H264.494V108.956Z" fill="white"/>
<path d="M264.205 109.658H263.339V109.699H264.205V109.658Z" fill="white"/>
<path d="M264.082 110.359H263.216V110.4H264.082V110.359Z" fill="white"/>
<path d="M263.999 111.101H263.133V111.142H263.999V111.101Z" fill="white"/>
<path d="M263.999 111.802H263.133V111.843H263.999V111.802Z" fill="white"/>
<path d="M264.082 112.544H263.216V112.585H264.082V112.544Z" fill="white"/>
<path d="M264.164 113.245H263.298V113.286H264.164V113.245Z" fill="white"/>
<path d="M264.412 113.987H263.546V114.029H264.412V113.987Z" fill="white"/>
<path d="M264.741 114.688H263.875V114.73H264.741V114.688Z" fill="white"/>
<path opacity="0.25" d="M276.989 125.08H260.865V125.327H277.03L276.989 125.08Z" fill="black"/>
<path d="M197.299 130.476H121.999V231.076H197.299V130.476Z" fill="#E0E0E0"/>
<path d="M127.899 159.076H190.299C190.799 159.076 191.199 159.476 191.199 159.976V207.876C191.199 208.676 190.499 209.376 189.699 209.376H129.199L126.999 207.276V159.976C126.999 159.476 127.399 159.076 127.899 159.076Z" fill="#8F8F8F"/>
<path d="M189.399 209.976H127.899C127.399 209.976 126.999 209.576 126.999 209.076V161.176C126.999 160.376 127.699 159.676 128.499 159.676H187.999L190.199 161.776V209.076C190.199 209.576 189.799 209.976 189.399 209.976Z" fill="white"/>
<path d="M179.199 149.476H137.099L138.599 145.676H180.599L179.199 149.476Z" fill="#B8B8B8"/>
<path d="M197.299 129.376H121.999V130.476H197.299V129.376Z" fill="#9C9C9C"/>
<path d="M197.299 125.376H121.999V129.476H197.299V125.376Z" fill="#BABABA"/>
<path d="M197.199 125.376H121.999L196.699 125.776L197.199 129.376V125.376Z" fill="#D9D9D9"/>
<path d="M197.299 231.176H121.999V235.276H197.299V231.176Z" fill="#BABABA"/>
<path d="M131.799 237.176H127.399C126.299 237.176 125.499 236.276 125.499 235.276H133.799C133.699 236.276 132.899 237.176 131.799 237.176Z" fill="#858585"/>
<path d="M191.799 237.176H187.399C186.299 237.176 185.499 236.276 185.499 235.276H193.799C193.699 236.276 192.799 237.176 191.799 237.176Z" fill="#858585"/>
<path d="M121.999 232.076V231.176H197.199V231.376L121.999 232.076Z" fill="#8C8C8C"/>
<path d="M197.299 144.776H121.999V145.176H197.299V144.776Z" fill="#666666"/>
<path d="M197.299 130.476H121.999V130.976H197.299V130.476Z" fill="white"/>
<path d="M197.299 145.176H121.999V145.676H197.299V145.176Z" fill="white"/>
<path d="M197.299 144.376H121.999V144.876H197.299V144.376Z" fill="#878787"/>
<path d="M197.299 128.976H121.999V129.476H197.299V128.976Z" fill="#878787"/>
<path d="M162.099 137.876C162.099 139.576 160.699 140.976 158.999 140.976C157.299 140.976 155.899 139.576 155.899 137.876C155.899 136.176 157.299 134.776 158.999 134.776C160.799 134.876 162.099 136.176 162.099 137.876Z" fill="#757575"/>
<path d="M159.099 140.676C160.645 140.676 161.899 139.422 161.899 137.876C161.899 136.33 160.645 135.076 159.099 135.076C157.553 135.076 156.299 136.33 156.299 137.876C156.299 139.422 157.553 140.676 159.099 140.676Z" fill="#3D3D3D"/>
<path d="M161.299 137.876C161.299 139.076 160.299 140.176 158.999 140.176C157.799 140.176 156.699 139.176 156.699 137.876C156.699 136.676 157.699 135.576 158.999 135.576C160.299 135.676 161.299 136.676 161.299 137.876Z" fill="#707070"/>
<path d="M158.099 137.476C158.375 137.476 158.599 137.252 158.599 136.976C158.599 136.7 158.375 136.476 158.099 136.476C157.823 136.476 157.599 136.7 157.599 136.976C157.599 137.252 157.823 137.476 158.099 137.476Z" fill="white"/>
<path d="M142.499 137.876C142.499 139.576 141.099 140.976 139.399 140.976C137.699 140.976 136.299 139.576 136.299 137.876C136.299 136.176 137.699 134.776 139.399 134.776C141.199 134.876 142.499 136.176 142.499 137.876Z" fill="#757575"/>
<path d="M139.499 140.676C141.045 140.676 142.299 139.422 142.299 137.876C142.299 136.33 141.045 135.076 139.499 135.076C137.953 135.076 136.699 136.33 136.699 137.876C136.699 139.422 137.953 140.676 139.499 140.676Z" fill="#3D3D3D"/>
<path d="M141.699 137.876C141.699 139.076 140.699 140.176 139.399 140.176C138.199 140.176 137.099 139.176 137.099 137.876C137.099 136.676 138.099 135.576 139.399 135.576C140.699 135.676 141.699 136.676 141.699 137.876Z" fill="#707070"/>
<path d="M138.999 136.976C138.999 137.276 138.799 137.476 138.499 137.476C138.199 137.476 137.999 137.276 137.999 136.976C137.999 136.676 138.199 136.476 138.499 136.476C138.799 136.476 138.999 136.676 138.999 136.976Z" fill="white"/>
<path d="M178.299 140.976C180.011 140.976 181.399 139.588 181.399 137.876C181.399 136.164 180.011 134.776 178.299 134.776C176.587 134.776 175.199 136.164 175.199 137.876C175.199 139.588 176.587 140.976 178.299 140.976Z" fill="#757575"/>
<path d="M178.299 140.676C179.845 140.676 181.099 139.422 181.099 137.876C181.099 136.33 179.845 135.076 178.299 135.076C176.753 135.076 175.499 136.33 175.499 137.876C175.499 139.422 176.753 140.676 178.299 140.676Z" fill="#3D3D3D"/>
<path d="M178.299 140.176C177.099 140.176 175.999 139.176 175.999 137.876C175.999 136.676 176.999 135.576 178.299 135.576C179.499 135.576 180.599 136.576 180.599 137.876C180.499 139.176 179.499 140.176 178.299 140.176Z" fill="#707070"/>
<path d="M179.199 137.476C178.899 137.476 178.699 137.276 178.699 136.976C178.699 136.676 178.899 136.476 179.199 136.476C179.499 136.476 179.699 136.676 179.699 136.976C179.699 137.176 179.499 137.476 179.199 137.476Z" fill="white"/>
<path d="M180.599 145.676H138.599V148.076H180.599V145.676Z" fill="#878787"/>
<path d="M180.599 146.876H138.599V148.076H180.599V146.876Z" fill="#A6A6A6"/>
<path d="M180.599 148.076H138.599V148.776H180.599V148.076Z" fill="#5E5E5E"/>
<path d="M189.199 209.276H128.799C128.199 209.276 127.799 208.776 127.799 208.276V160.776C127.799 160.176 128.299 159.776 128.799 159.776H189.199C189.799 159.776 190.199 160.276 190.199 160.776V208.276C190.199 208.876 189.799 209.276 189.199 209.276Z" fill="#3D3D3D"/>
<path d="M189.199 209.276H128.799C128.199 209.276 127.799 208.776 127.799 208.276V160.776C127.799 160.176 128.299 159.776 128.799 159.776H189.199C189.799 159.776 190.199 160.276 190.199 160.776V208.276C190.199 208.876 189.799 209.276 189.199 209.276Z" fill="#2D343D"/>
<path d="M127.799 171.176V160.676C127.799 160.076 128.299 159.676 128.799 159.676H189.199C189.799 159.676 190.199 160.176 190.199 160.676V171.176H127.799Z" fill="#242424"/>
<path d="M190.199 189.976V208.276C190.199 208.876 189.699 209.276 189.199 209.276H128.799C128.199 209.276 127.799 208.776 127.799 208.276V189.976H190.199Z" fill="#242424"/>
<path d="M155.399 123.576H129.099V125.376H155.399V123.576Z" fill="#1C2126"/>
<path d="M185.299 123.576H171.199V125.376H185.299V123.576Z" fill="#1C2126"/>
<path opacity="0.05" d="M188.399 208.476L128.799 161.376C128.799 160.876 129.199 160.376 129.799 160.376H188.399C188.899 160.376 189.399 160.776 189.399 161.376V207.476C189.399 208.076 188.999 208.476 188.399 208.476Z" fill="white"/>
<path d="M278.092 132.978H198.288V231.441H278.092V132.978Z" fill="#E0E0E0"/>
<path d="M278.092 131.863H198.288V132.978H278.092V131.863Z" fill="#9C9C9C"/>
<path d="M278.092 125.576H198.288V131.863H278.092V125.576Z" fill="#BABABA"/>
<path d="M278.092 125.576H198.288L277.585 126.083L278.092 131.863V125.576Z" fill="#D9D9D9"/>
<path d="M278.092 231.441H198.288V235.801H278.092V231.441Z" fill="#BABABA"/>
<path d="M208.733 237.829H204.068C202.953 237.829 202.04 236.917 202.04 235.801H210.862C210.761 236.917 209.848 237.829 208.733 237.829Z" fill="#858585"/>
<path d="M272.312 237.829H267.648C266.532 237.829 265.62 236.917 265.62 235.801H274.442C274.34 236.917 273.428 237.829 272.312 237.829Z" fill="#858585"/>
<path d="M198.288 232.354V231.441H278.092V231.644L198.288 232.354Z" fill="#8C8C8C"/>
<path d="M278.092 148.189H198.288V148.595H278.092V148.189Z" fill="#666666"/>
<path d="M278.092 132.978H198.288V133.485H278.092V132.978Z" fill="white"/>
<path d="M278.092 148.594H198.288V149.101H278.092V148.594Z" fill="white"/>
<path d="M278.092 147.682H198.288V148.189H278.092V147.682Z" fill="#878787"/>
<path d="M278.092 131.356H198.288V131.863H278.092V131.356Z" fill="#878787"/>
<path d="M269.169 144.437C266.837 144.437 265.011 142.612 265.011 140.28C265.011 137.947 266.837 136.122 269.169 136.122C271.501 136.122 273.326 137.947 273.326 140.28C273.428 142.51 271.501 144.437 269.169 144.437Z" fill="#4A4A4A"/>
<path d="M269.169 144.133C267.039 144.133 265.316 142.409 265.316 140.28C265.316 138.15 267.039 136.426 269.169 136.426C271.298 136.426 273.022 138.15 273.022 140.28C273.022 142.409 271.298 144.133 269.169 144.133Z" fill="#A6A6A6"/>
<path d="M269.169 143.22C270.849 143.22 272.211 141.858 272.211 140.178C272.211 138.498 270.849 137.136 269.169 137.136C267.489 137.136 266.127 138.498 266.127 140.178C266.127 141.858 267.489 143.22 269.169 143.22Z" fill="#E0E0E0"/>
<path d="M270.487 139.57C270.082 139.57 269.777 139.266 269.777 138.86C269.777 138.454 270.082 138.15 270.487 138.15C270.893 138.15 271.197 138.454 271.197 138.86C271.197 139.266 270.893 139.57 270.487 139.57Z" fill="#CF4040"/>
<path d="M260.651 142.308C261.827 142.308 262.78 141.354 262.78 140.178C262.78 139.002 261.827 138.049 260.651 138.049C259.475 138.049 258.522 139.002 258.522 140.178C258.522 141.354 259.475 142.308 260.651 142.308Z" fill="#4A4A4A"/>
<path d="M262.071 141.598C261.26 142.409 260.043 142.409 259.232 141.598C258.42 140.787 258.42 139.57 259.232 138.759C260.043 137.948 261.26 137.948 262.071 138.759C262.882 139.57 262.882 140.888 262.071 141.598Z" fill="#A6A6A6"/>
<path d="M260.651 141.801C261.547 141.801 262.273 141.074 262.273 140.178C262.273 139.282 261.547 138.556 260.651 138.556C259.755 138.556 259.029 139.282 259.029 140.178C259.029 141.074 259.755 141.801 260.651 141.801Z" fill="#E0E0E0"/>
<path d="M260.955 139.57C260.854 139.671 260.55 139.671 260.448 139.57C260.347 139.468 260.347 139.164 260.448 139.063C260.55 138.961 260.854 138.961 260.955 139.063C261.057 139.164 261.057 139.367 260.955 139.57Z" fill="#CF4040"/>
<path d="M255.885 141.801C255.074 142.612 253.654 142.612 252.843 141.801C252.032 140.989 252.032 139.57 252.843 138.759C253.654 137.947 255.074 137.947 255.885 138.759C256.798 139.57 256.798 140.888 255.885 141.801Z" fill="#4A4A4A"/>
<path d="M255.784 141.598C254.973 142.409 253.756 142.409 252.945 141.598C252.133 140.787 252.133 139.57 252.945 138.759C253.756 137.947 254.973 137.947 255.784 138.759C256.595 139.57 256.595 140.888 255.784 141.598Z" fill="#A6A6A6"/>
<path d="M254.364 141.801C255.26 141.801 255.986 141.074 255.986 140.178C255.986 139.282 255.26 138.556 254.364 138.556C253.468 138.556 252.742 139.282 252.742 140.178C252.742 141.074 253.468 141.801 254.364 141.801Z" fill="#E0E0E0"/>
<path d="M254.567 139.57C254.465 139.671 254.161 139.671 254.06 139.57C253.958 139.468 253.958 139.164 254.06 139.063C254.161 138.961 254.465 138.961 254.567 139.063C254.668 139.164 254.77 139.367 254.567 139.57Z" fill="#CF4040"/>
<path d="M238.241 207.408C251.234 207.408 261.767 196.876 261.767 183.883C261.767 170.89 251.234 160.357 238.241 160.357C225.248 160.357 214.715 170.89 214.715 183.883C214.715 196.876 225.248 207.408 238.241 207.408Z" fill="#828282"/>
<path d="M269.676 179.421H260.448V190.474H269.676V179.421Z" fill="#828282"/>
<path d="M238.241 206.293C250.618 206.293 260.651 196.26 260.651 183.883C260.651 171.506 250.618 161.473 238.241 161.473C225.864 161.473 215.831 171.506 215.831 183.883C215.831 196.26 225.864 206.293 238.241 206.293Z" fill="#E0E0E0"/>
<path opacity="0.2" d="M232.765 186.925C241.486 195.646 256.493 196.964 254.161 199.702C245.44 208.423 231.244 208.423 222.422 199.702C213.701 190.981 213.701 176.785 222.422 167.963C224.957 164.515 223.943 178.204 232.765 186.925Z" fill="#030303"/>
<path d="M257.546 188.367C259.931 177.71 253.224 167.136 242.567 164.751C231.91 162.366 221.336 169.072 218.951 179.73C216.566 190.387 223.272 200.96 233.93 203.346C244.587 205.731 255.16 199.024 257.546 188.367Z" fill="#CFCFCF"/>
<path d="M269.27 179.928H257.812V190.17H269.27V179.928Z" fill="#E0E0E0"/>
<path opacity="0.05" d="M269.169 189.764H258.217V179.928C258.217 179.928 258.724 183.275 261.462 186.114C264.301 188.852 269.169 189.764 269.169 189.764Z" fill="black"/>
<path opacity="0.2" d="M269.169 190.17C269.169 190.17 265.417 186.925 263.186 184.694C260.955 182.463 257.71 180.03 257.71 180.03H269.169V190.17Z" fill="white"/>
<path d="M269.169 190.17L268.865 180.334L257.812 179.928H269.169V190.17Z" fill="white"/>
<path d="M252.235 197.978C252.235 197.978 265.518 184.187 250.714 169.382C236.213 158.329 224.349 170.092 224.349 170.092C232.055 162.385 244.528 162.385 252.235 170.092C259.941 177.799 259.941 190.271 252.235 197.978Z" fill="white"/>
<path opacity="0.2" d="M251.829 197.978C245.745 195.24 255.885 180.232 248.28 172.627C240.675 165.022 226.58 176.785 224.247 170.396C231.853 162.791 244.224 162.791 251.829 170.396C259.434 178.002 259.434 190.373 251.829 197.978Z" fill="black"/>
<path d="M254.55 187.704C256.566 178.686 250.889 169.742 241.871 167.727C232.853 165.711 223.909 171.388 221.894 180.406C219.878 189.424 225.555 198.368 234.573 200.383C243.591 202.399 252.535 196.722 254.55 187.704Z" fill="#3A495E"/>
<path d="M237.835 183.68C237.835 174.554 229.419 167.253 238.545 167.253C247.671 167.253 254.973 174.655 254.973 183.68C254.973 192.806 250.105 183.883 240.979 183.883C231.954 183.883 237.835 192.705 237.835 183.68Z" fill="#2C3C54"/>
<path opacity="0.15" d="M238.849 183.579C240.573 183.477 238.748 176.176 238.748 185.404C238.748 194.632 247.874 200.412 238.647 200.412C229.419 200.412 221.915 192.908 221.915 183.68C221.915 174.351 229.622 183.579 238.849 183.579Z" fill="white"/>
<path d="M238.646 194.226C244.359 194.226 248.99 189.595 248.99 183.883C248.99 178.17 244.359 173.54 238.646 173.54C232.934 173.54 228.303 178.17 228.303 183.883C228.303 189.595 232.934 194.226 238.646 194.226Z" fill="#28374F"/>
<path d="M240.168 182.362C236.111 178.306 231.346 176.582 231.346 176.582C235.402 172.526 241.993 172.526 245.948 176.582C250.004 180.638 250.004 187.229 245.948 191.184C245.948 191.184 244.224 186.418 240.168 182.362Z" fill="#233045"/>
<path opacity="0.05" d="M236.111 186.418C238.038 188.344 244.122 191.792 242.905 192.401C239.356 194.226 234.895 193.617 231.853 190.575C228.81 187.533 228.303 183.173 230.027 179.522C230.737 178.407 234.185 184.39 236.111 186.418Z" fill="white"/>
<path d="M245.948 191.184C245.948 191.184 252.032 183.984 245.745 176.886C238.14 169.889 231.346 176.582 231.346 176.582C235.402 172.526 241.993 172.526 245.948 176.582C250.004 180.536 250.004 187.128 245.948 191.184Z" fill="#84A6D6"/>
<path d="M216.845 136.325H203.358V144.336H216.845V136.325Z" fill="#2D343D"/>
<path d="M221.611 138.86H219.887C219.583 138.86 219.279 138.556 219.279 138.251V137.035C219.279 136.73 219.583 136.426 219.887 136.426H221.611C221.915 136.426 222.219 136.73 222.219 137.035V138.251C222.321 138.556 222.016 138.86 221.611 138.86Z" fill="#ADADAD"/>
<path d="M219.887 136.629H221.408C221.712 136.629 222.016 136.933 222.016 137.237V138.251C222.016 138.15 221.611 137.035 219.887 136.629Z" fill="#9E9E9E"/>
<path d="M225.971 138.86H224.247C223.943 138.86 223.639 138.556 223.639 138.251V137.035C223.639 136.73 223.943 136.426 224.247 136.426H225.971C226.275 136.426 226.58 136.73 226.58 137.035V138.251C226.681 138.556 226.377 138.86 225.971 138.86Z" fill="#ADADAD"/>
<path d="M224.247 136.629H225.768C226.073 136.629 226.377 136.933 226.377 137.237V138.251C226.377 138.15 225.971 137.035 224.247 136.629Z" fill="#9E9E9E"/>
<path d="M221.611 144.336H219.887C219.583 144.336 219.279 144.031 219.279 143.727V142.51C219.279 142.206 219.583 141.902 219.887 141.902H221.611C221.915 141.902 222.219 142.206 222.219 142.51V143.727C222.321 144.031 222.016 144.336 221.611 144.336Z" fill="#ADADAD"/>
<path d="M219.887 142.003H221.408C221.712 142.003 222.016 142.307 222.016 142.612V143.626C222.016 143.626 221.611 142.51 219.887 142.003Z" fill="#9E9E9E"/>
<path d="M225.971 144.336H224.247C223.943 144.336 223.639 144.031 223.639 143.727V142.51C223.639 142.206 223.943 141.902 224.247 141.902H225.971C226.275 141.902 226.58 142.206 226.58 142.51V143.727C226.681 144.031 226.377 144.336 225.971 144.336Z" fill="#ADADAD"/>
<path d="M224.247 142.003H225.768C226.073 142.003 226.377 142.307 226.377 142.612V143.626C226.377 143.626 225.971 142.51 224.247 142.003Z" fill="#9E9E9E"/>
<path d="M221.611 141.598H219.887C219.583 141.598 219.279 141.294 219.279 140.989V139.773C219.279 139.468 219.583 139.164 219.887 139.164H221.611C221.915 139.164 222.219 139.468 222.219 139.773V140.989C222.321 141.294 222.016 141.598 221.611 141.598Z" fill="#ADADAD"/>
<path d="M219.887 139.367H221.408C221.712 139.367 222.016 139.671 222.016 139.975V140.989C222.016 140.888 221.611 139.773 219.887 139.367Z" fill="#9E9E9E"/>
<path d="M225.971 141.598H224.247C223.943 141.598 223.639 141.294 223.639 140.989V139.773C223.639 139.468 223.943 139.164 224.247 139.164H225.971C226.275 139.164 226.58 139.468 226.58 139.773V140.989C226.681 141.294 226.377 141.598 225.971 141.598Z" fill="#ADADAD"/>
<path d="M224.247 139.367H225.768C226.073 139.367 226.377 139.671 226.377 139.975V140.989C226.377 140.888 225.971 139.773 224.247 139.367Z" fill="#9E9E9E"/>
<path d="M231.447 144.234C232.791 144.234 233.881 143.145 233.881 141.8C233.881 140.456 232.791 139.367 231.447 139.367C230.103 139.367 229.013 140.456 229.013 141.8C229.013 143.145 230.103 144.234 231.447 144.234Z" fill="#CF4040"/>
<path d="M232.765 143.524C232.765 143.524 232.562 142.307 231.65 141.395C230.737 140.583 229.622 140.381 229.622 140.381C230.534 139.468 231.853 139.468 232.765 140.381C233.678 141.192 233.678 142.612 232.765 143.524Z" fill="#B03636"/>
<path d="M229.52 141.091C229.52 141.091 230.129 142.105 230.636 142.612C231.143 143.119 232.157 143.626 232.157 143.626C231.346 144.031 230.534 143.727 230.027 143.22C229.52 142.713 229.317 142.003 229.52 141.091Z" fill="#FF5454"/>
<g clip-path="url(#clip0)">
<path d="M281.054 68.1498C274.053 68.1498 268.378 63.7221 268.378 58.2603C268.378 52.7985 274.053 48.3708 281.054 48.3708C288.055 48.3708 293.73 52.7985 293.73 58.2603C293.73 63.7221 288.055 68.1498 281.054 68.1498Z" fill="#3F3D56"/>
<path d="M255.702 109.989C245.621 109.989 237.448 101.815 237.448 91.7312C237.448 81.6476 245.621 73.4733 255.702 73.4733C265.783 73.4733 273.956 81.6476 273.956 91.7312C273.956 101.815 265.783 109.989 255.702 109.989Z" fill="#3F3D56"/>
<path d="M250.124 135.603H268.378V158.932H250.124V135.603Z" fill="#FBBEBE"/>
<path d="M237.448 129.008H243.026V140.166H237.448V129.008Z" fill="#FBBEBE"/>
<path d="M265.969 249.081L268.25 255.928C268.25 255.928 269.266 260.999 265.969 261.252C262.673 261.504 257.344 260.491 257.344 260.491C257.344 260.491 256.584 258.21 257.344 256.181C258.104 254.152 260.385 248.573 260.385 248.573L265.969 249.081Z" fill="#3C354C"/>
<path d="M248.731 249.333C248.731 249.333 252.281 258.21 249.492 259.731C246.703 261.252 242.898 259.983 239.857 261.252C236.816 262.52 228.449 259.478 228.449 259.478C228.449 259.478 227.433 256.689 233.011 255.928C233.011 255.928 239.081 251.362 239.081 250.349C239.081 249.336 242.63 249.333 242.63 249.333H248.731Z" fill="#3C354C"/>
<path d="M249.492 148.157C249.492 148.157 270.279 152.468 272.812 151.199C275.346 149.931 277.882 168.454 277.882 168.454C277.882 168.454 278.898 179.612 275.349 194.572C271.8 209.533 275.349 216.888 275.349 216.888C275.349 216.888 274.841 231.088 271.036 237.683C267.231 244.278 267.234 250.362 267.234 250.362C267.234 250.362 259.887 251.123 259.628 249.346C259.628 249.346 262.673 242.246 262.165 235.654C261.657 229.062 263.685 216.38 263.685 216.38C263.685 216.38 260.388 200.404 260.896 194.333C261.404 188.261 259.12 175.314 257.855 177.595C256.59 179.877 253.29 191.035 253.29 193.32C253.29 195.604 252.012 210.814 251.262 211.83C250.511 212.846 250.757 215.888 251.009 217.409C251.262 218.93 251.262 230.34 249.996 236.427C248.731 242.515 249.741 249.359 249.489 250.375C249.236 251.391 241.882 250.627 241.63 248.851C241.63 248.851 240.614 237.948 240.106 236.427C239.598 234.907 239.358 215.607 239.358 215.607C239.358 215.607 238.854 200.646 238.346 199.125C237.838 197.605 237.068 164.891 240.374 161.101C243.681 157.312 242.403 147.662 242.403 147.662L249.492 148.157Z" fill="#3F3D56"/>
<path d="M266.58 103.982C267.519 105.752 268.464 107.538 269.052 109.459C269.64 111.379 269.844 113.459 269.292 115.389C268.896 116.595 268.347 117.744 267.656 118.808C267.107 119.825 266.41 120.756 265.589 121.569C263.672 123.32 260.887 123.672 258.299 123.946C257.855 124.02 257.402 124.013 256.961 123.924C256.607 123.821 256.28 123.642 256.002 123.4C254.868 122.441 254.354 120.978 253.939 119.566C252.951 116.207 252.243 112.772 251.824 109.296C251.726 108.746 251.726 108.184 251.824 107.634C252.047 106.676 252.814 105.931 253.37 105.107C254.036 104.122 254.416 102.972 254.469 101.784C254.491 101.205 254.469 100.566 254.833 100.125C255.075 99.8853 255.369 99.7038 255.692 99.5949C257.203 98.9558 258.711 98.3168 260.225 97.7033C261.139 97.3262 262.781 96.3229 263.74 97.0642C264.561 97.7033 264.164 99.1859 264.516 100.074C265.056 101.423 265.902 102.704 266.58 103.982Z" fill="#FBBEBE"/>
<path opacity="0.1" d="M266.58 103.982C267.519 105.752 268.464 107.538 269.052 109.459C269.64 111.379 269.844 113.459 269.292 115.389C268.896 116.595 268.347 117.744 267.656 118.808C267.107 119.825 266.41 120.756 265.589 121.569C263.672 123.32 260.887 123.672 258.299 123.946C257.855 124.02 257.402 124.013 256.961 123.924C256.607 123.821 256.28 123.642 256.002 123.4C254.868 122.441 254.354 120.978 253.939 119.566C252.951 116.207 252.243 112.772 251.824 109.296C251.726 108.746 251.726 108.184 251.824 107.634C252.047 106.676 252.814 105.931 253.37 105.107C254.036 104.122 254.416 102.972 254.469 101.784C254.491 101.205 254.469 100.566 254.833 100.125C255.075 99.8853 255.369 99.7038 255.692 99.5949C257.203 98.9558 258.711 98.3168 260.225 97.7033C261.139 97.3262 262.781 96.3229 263.74 97.0642C264.561 97.7033 264.164 99.1859 264.516 100.074C265.056 101.423 265.902 102.704 266.58 103.982Z" fill="black"/>
<path d="M256.59 104.541C251.689 104.541 247.715 100.567 247.715 95.6646C247.715 90.7623 251.689 86.7881 256.59 86.7881C261.491 86.7881 265.465 90.7623 265.465 95.6646C265.465 100.567 261.491 104.541 256.59 104.541Z" fill="#FBBEBE"/>
<path d="M253.475 118.051C255.156 118.655 256.89 119.176 258.676 119.24C260.014 119.253 261.349 119.11 262.653 118.815C265.349 118.278 267.997 117.523 270.57 116.556C271.119 117.639 271.266 118.875 271.314 120.09C271.451 123.761 270.72 127.404 270.439 131.069C270.084 135.727 270.439 140.488 269.241 145C269.171 144.233 268.873 143.505 268.384 142.91C267.977 142.472 267.491 142.114 266.95 141.856C264.532 140.606 261.748 140.259 259.098 140.878C257.561 141.243 255.929 141.923 254.472 141.313C253.603 140.945 252.974 140.172 252.491 139.36C251.672 137.896 251.088 136.312 250.76 134.667C249.802 130.436 249.674 126.062 249.559 121.722C249.527 120.562 249.028 117.115 249.99 116.265C250.664 115.674 250.862 116.517 251.348 116.958C251.979 117.457 252.702 117.828 253.475 118.051Z" fill="#F2F2F2"/>
<path d="M265.966 102.813C266.557 102.349 267.432 102.493 268.084 102.886C268.736 103.279 269.263 103.822 269.924 104.18C271.758 105.174 274.221 104.445 275.962 105.602C277.598 106.692 277.879 108.935 278.007 110.897C278.326 115.881 278.601 120.901 279.799 125.752C280.118 127.03 280.502 128.34 280.38 129.656C280.285 130.408 280.107 131.148 279.85 131.861L278.278 136.772C277.55 139.054 276.812 141.37 276.735 143.764C276.658 146.157 277.221 148.432 277.78 150.717C278.885 155.217 279.604 159.804 279.93 164.428C280.029 165.958 280.07 167.556 279.451 168.959C278.812 170.425 277.515 171.515 276.147 172.342C274.78 173.17 273.295 173.809 271.956 174.688C269.269 176.455 267.113 179.238 263.97 179.963C262.529 180.283 261.021 180.155 259.571 179.874C259.571 179.874 260.392 142.578 262.676 137.252C264.96 131.925 266.985 108.852 266.985 108.091C266.985 107.331 265.966 102.813 265.966 102.813Z" fill="#83C1C7"/>
<path d="M253.629 104.033C253.629 104.033 241.633 104.033 239.857 110.373C238.081 116.712 244.927 127.11 244.927 127.11C244.927 127.11 242.138 147.649 240.873 149.678C239.608 151.707 240.109 155.749 240.109 155.749C239.191 158.532 239.017 161.506 239.604 164.377C240.617 168.939 244.422 177.056 244.422 177.056C244.422 177.056 249.492 177.056 250.76 180.097C252.028 183.139 252.281 166.91 252.281 166.91C252.281 166.91 256.842 137.242 256.59 135.469C256.338 133.695 255.069 118.984 254.562 114.926C254.054 110.868 252.948 105.554 253.629 104.033Z" fill="#83C1C7"/>
<path d="M244.422 108.091C244.422 108.091 238.589 109.865 238.589 111.894C238.589 113.923 236.803 124.825 236.803 128.375C236.803 131.925 237.563 132.433 236.803 133.702C236.042 134.97 244.914 134.462 244.914 134.462L246.527 120.01L244.422 108.091Z" fill="#4DB6BF"/>
<path d="M288.88 126.133C288.88 126.133 277.469 126.894 275.44 125.37C273.412 123.845 264.793 127.399 264.032 129.428C263.272 131.457 276.204 131.709 278.229 131.709C280.254 131.709 289.892 134.754 289.892 134.754L288.88 126.133Z" fill="#FBBEBE"/>
<path d="M302.391 244.47C302.391 244.47 307.71 257.89 304.947 259.488C302.183 261.086 273.045 259.948 273.045 259.948C273.045 259.948 268.193 256.945 273.739 254.861C273.739 254.861 278.364 254.631 281.367 252.781C284.37 250.931 287.843 247.464 287.843 247.464C287.843 247.464 288.073 242.377 289.922 243.534C290.476 243.898 290.947 244.375 291.305 244.932C291.663 245.49 291.9 246.116 292.002 246.771L302.391 244.47Z" fill="#3F3D56"/>
<path opacity="0.1" d="M302.391 244.47C302.391 244.47 307.71 257.89 304.947 259.488C302.183 261.086 273.045 259.948 273.045 259.948C273.045 259.948 268.193 256.945 273.739 254.861C273.739 254.861 278.364 254.631 281.367 252.781C284.37 250.931 287.843 247.464 287.843 247.464C287.843 247.464 288.073 242.377 289.922 243.534C290.476 243.898 290.947 244.375 291.305 244.932C291.663 245.49 291.9 246.116 292.002 246.771L302.391 244.47Z" fill="black"/>
<path d="M310.598 248.573C310.598 248.573 316.428 263.271 313.387 265.054C310.345 266.837 278.4 265.562 278.4 265.562C278.4 265.562 273.074 262.268 279.16 259.983C279.16 259.983 284.23 259.731 287.526 257.702C290.823 255.673 294.625 251.861 294.625 251.861C294.625 251.861 294.877 246.282 296.906 247.55C297.513 247.95 298.029 248.472 298.422 249.084C298.815 249.695 299.076 250.382 299.187 251.1L310.598 248.573Z" fill="#3F3D56"/>
<path d="M280.674 155.257L284.223 187.21C284.223 187.21 285.501 202.426 289.293 205.721C289.293 205.721 289.293 210.539 290.571 212.06L292.347 232.095C292.347 232.095 289.811 239.444 290.063 240.722C290.315 242 289.05 246.045 289.303 246.553C289.555 247.061 301.474 246.553 301.474 246.553L298.937 205.727L291.079 148.927L280.674 155.257Z" fill="#3C354C"/>
<path opacity="0.1" d="M280.674 155.257L284.223 187.21C284.223 187.21 285.501 202.426 289.293 205.721C289.293 205.721 289.293 210.539 290.571 212.06L292.347 232.095C292.347 232.095 289.811 239.444 290.063 240.722C290.315 242 289.05 246.045 289.303 246.553C289.555 247.061 301.474 246.553 301.474 246.553L298.937 205.727L291.079 148.927L280.674 155.257Z" fill="black"/>
<path d="M287.012 154.241C287.012 154.241 289.801 180.359 291.069 185.938C291.867 189.612 292.375 193.343 292.59 197.096C292.59 197.096 292.842 205.212 295.126 207.494C295.793 208.154 296.317 208.945 296.665 209.816C297.013 210.687 297.179 211.621 297.152 212.558C297.152 212.558 299.436 238.169 298.168 241.214C296.899 244.259 295.631 246.793 296.89 248.819C298.148 250.845 312.102 250.848 312.102 249.327C312.102 247.806 312.102 246.537 312.863 245.777C313.623 245.016 312.863 240.198 312.863 240.198C312.863 240.198 315.904 217.629 313.115 211.037C310.326 204.446 309.058 186.434 309.058 186.434C309.058 186.434 311.087 165.894 313.623 162.597C316.16 159.299 313.115 147.636 313.115 147.636L287.012 154.241Z" fill="#3C354C"/>
<path d="M257.22 131.289L244 121.881L252.226 121L263.683 130.7L257.22 131.289Z" fill="#3F3D56"/>
<path d="M294.149 73.1314C293.855 73.8024 293.149 74.1762 292.507 74.5309C288.785 76.5823 285.67 79.5571 282.604 82.4968C283.369 79.8994 283.205 77.1164 282.14 74.6268C281.776 73.78 281.294 72.8661 281.556 71.981C281.751 71.342 282.303 70.8563 282.834 70.4409C284.086 69.4722 285.395 68.5792 286.753 67.7664C287.712 67.1977 289.654 65.6863 290.743 65.8493C290.801 67.3223 290.83 68.6388 291.475 70.0032C291.635 70.3419 294.037 73.387 294.149 73.1314Z" fill="#E2ABAB"/>
<path d="M281.182 76.3905C275.441 76.3905 270.787 71.7354 270.787 65.993C270.787 60.2506 275.441 55.5955 281.182 55.5955C286.923 55.5955 291.577 60.2506 291.577 65.993C291.577 71.7354 286.923 76.3905 281.182 76.3905Z" fill="#FBBEBE"/>
<path d="M280.674 90.5937C280.674 90.5937 278.901 81.7171 283.971 78.6752C289.041 75.6333 294.871 72.0833 294.871 72.0833C294.871 72.0833 296.647 71.8277 297.407 75.6333C297.407 75.6333 311.856 78.4228 313.38 92.1147C314.904 105.807 312.364 125.841 312.364 125.841C312.364 125.841 314.645 143.339 317.434 152.72C317.434 152.72 319.718 154.749 309.576 151.707C299.433 148.665 281.69 160.334 281.69 160.334C281.69 160.334 279.914 158.558 279.914 157.289C279.914 156.021 277.885 148.662 277.885 148.662C277.885 148.662 276.112 117.473 275.352 113.923C274.592 110.373 278.393 91.1018 280.674 90.5937Z" fill="#4DB6BF"/>
<path d="M283.632 67.0667C283.041 66.6672 282.3 66.5938 281.591 66.5235C280.882 66.4532 280.141 66.3573 279.575 65.9227C278.594 65.1687 278.521 63.7116 277.802 62.7051C276.764 61.2448 274.691 61.0691 272.898 61.1394C271.803 61.1841 270.624 61.2512 269.704 60.6601C268.784 60.0689 268.33 58.9027 268.011 57.8258C267.631 56.5477 267.388 54.9884 268.33 54.0426C268.969 53.3844 270.004 53.2534 270.726 52.675C271.448 52.0967 271.784 51.1029 272.189 50.237C272.652 49.1792 273.385 48.2614 274.314 47.5753C275.675 46.6167 277.412 46.4186 279.07 46.4346C280.728 46.4506 282.393 46.671 284.038 46.4665C285.386 46.3004 286.731 45.853 288.073 46.0511C289.785 46.3036 291.2 47.5977 292.047 49.109C292.893 50.6204 293.251 52.3459 293.603 54.0394L294.561 58.6502C294.855 60.0817 295.152 61.5484 294.925 62.9895C294.452 65.9803 291.807 68.3576 291.625 71.3771C291.451 70.5429 291.073 69.7649 290.524 69.113C289.976 68.461 289.274 67.9555 288.482 67.6418C288.283 67.545 288.059 67.5169 287.843 67.5619C287.581 67.6482 287.427 67.9102 287.261 68.1307C286.827 68.7091 285.463 69.5846 284.706 69.1756C283.984 68.8081 284.501 67.6578 283.632 67.0667Z" fill="#3F3D56"/>
<path d="M309.828 114.431C309.828 114.431 311.604 125.586 304.253 124.573C304.253 124.573 300.449 124.065 299.941 124.573C299.433 125.081 280.674 121.783 278.138 118.994C278.138 118.994 275.096 117.981 273.576 119.502C272.055 121.023 256.842 122.544 261.401 117.977C265.96 113.411 273.061 112.398 273.061 112.398L282.696 112.903C282.696 112.903 287.766 114.427 290.807 112.903C293.849 111.379 302.477 111.906 302.477 111.906L309.828 114.431Z" fill="#FBBEBE"/>
<path d="M299.436 79.1832C299.436 79.1832 310.844 80.4614 310.844 96.9332V117.977C310.844 117.977 304.506 115.188 303.237 115.44C301.969 115.693 296.899 112.143 296.899 112.143C296.899 112.143 291.069 98.4541 291.577 94.6517C292.085 90.8493 291.83 79.6881 299.436 79.1832Z" fill="#3F3D56"/>
<path d="M238.336 132.181C238.336 132.181 235.547 140.808 239.349 143.339C243.15 145.869 249.492 134.462 249.492 134.462C249.492 134.462 256.338 126.349 251.773 124.573C247.208 122.796 245.345 130.532 245.345 130.532L239.358 135.731L238.336 132.181Z" fill="#FBBEBE"/>
<path d="M255.702 95.5368C250.102 95.5368 245.562 92.6413 245.562 89.0695C245.562 85.4977 250.102 82.6022 255.702 82.6022C261.302 82.6022 265.842 85.4977 265.842 89.0695C265.842 92.6413 261.302 95.5368 255.702 95.5368Z" fill="#3F3D56"/>
<path d="M253.929 80.8288C249.869 80.8288 246.578 77.537 246.578 73.4764C246.578 69.4158 249.869 66.124 253.929 66.124C257.989 66.124 261.28 69.4158 261.28 73.4764C261.28 77.537 257.989 80.8288 253.929 80.8288Z" fill="#3F3D56"/>
<path d="M281.182 64.5999C275.792 64.5999 271.423 62.3296 271.423 59.529C271.423 56.7283 275.792 54.458 281.182 54.458C286.572 54.458 290.941 56.7283 290.941 59.529C290.941 62.3296 286.572 64.5999 281.182 64.5999Z" fill="#3F3D56"/>
<path d="M290.309 68.9104C288.419 68.9104 286.888 65.1064 286.888 60.414C286.888 55.7217 288.419 51.9177 290.309 51.9177C292.199 51.9177 293.73 55.7217 293.73 60.414C293.73 65.1064 292.199 68.9104 290.309 68.9104Z" fill="#3F3D56"/>
</g>
<defs>
<clipPath id="clip0">
<rect width="170" height="220" fill="white" transform="matrix(-1 0 0 1 348 46)"/>
</clipPath>
</defs>
</svg>
