<svg width="18" height="18" viewBox="0 0 18 18" fill="none" xmlns="http://www.w3.org/2000/svg">
<path d="M15.4142 0H2.93361C1.50793 0 0.347839 1.16009 0.347839 2.58577V15.0664C0.347839 16.4921 1.50793 17.6522 2.93361 17.6522H15.4142C16.8399 17.6522 18 16.4921 18 15.0664V2.58577C18 1.16009 16.8399 0 15.4142 0ZM9.2084 13.446C6.64189 13.446 4.55402 11.3581 4.55402 8.79161C4.55402 6.2251 6.64189 4.13723 9.2084 4.13723C11.7749 4.13723 13.8628 6.2251 13.8628 8.79161C13.8628 11.3581 11.7749 13.446 9.2084 13.446ZM14.3799 5.17154C13.5245 5.17154 12.8285 4.47553 12.8285 3.62007C12.8285 2.76462 13.5245 2.06861 14.3799 2.06861C15.2354 2.06861 15.9314 2.76462 15.9314 3.62007C15.9314 4.47553 15.2354 5.17154 14.3799 5.17154Z" fill="#0197A4"/>
<path d="M14.3799 3.10292C14.0946 3.10292 13.8628 3.3347 13.8628 3.62007C13.8628 3.90545 14.0946 4.13723 14.3799 4.13723C14.6653 4.13723 14.8971 3.90545 14.8971 3.62007C14.8971 3.3347 14.6653 3.10292 14.3799 3.10292Z" fill="#0197A4"/>
<path d="M9.20839 5.17154C7.2125 5.17154 5.58832 6.79572 5.58832 8.79161C5.58832 10.7875 7.2125 12.4117 9.20839 12.4117C11.2043 12.4117 12.8285 10.7875 12.8285 8.79161C12.8285 6.79572 11.2043 5.17154 9.20839 5.17154Z" fill="#0197A4"/>
</svg>
