<svg width="18" height="18" viewBox="0 0 18 18" fill="none" xmlns="http://www.w3.org/2000/svg">
<path fill-rule="evenodd" clip-rule="evenodd" d="M2 0C0.895431 0 0 0.895431 0 2V15.6522C0 16.7567 0.895431 17.6522 2 17.6522H9.41757L9.42033 10.8047L7.1221 10.7951L7.12348 8.17413L9.42033 8.16724C9.4155 7.46942 9.41688 6.77092 9.41895 6.07311C9.42377 5.22842 9.66236 4.35271 10.2319 3.71075C10.8325 3.0157 11.7634 2.69437 12.6625 2.66886C13.4169 2.65783 14.1726 2.69024 14.9228 2.76953L14.9235 5.17257C14.4215 5.17326 13.9189 5.17326 13.4169 5.17188C12.5736 5.18395 12.1621 5.477 12.1281 6.34892L12.1226 8.16793L14.798 8.16861L14.4443 10.8068L12.1226 10.804L12.1261 17.6522H15.6522C16.7567 17.6522 17.6522 16.7567 17.6522 15.6522V2C17.6522 0.895431 16.7567 0 15.6522 0H2Z" fill="#0197A4"/>
</svg>
