<svg width="25" height="25" viewBox="0 0 25 25" fill="none" xmlns="http://www.w3.org/2000/svg">
<path d="M21.4334 0H4.21875C2.25231 0 0.652176 1.60013 0.652176 3.56658V20.7812C0.652176 22.7477 2.25231 24.3478 4.21875 24.3478H21.4334C23.3999 24.3478 25 22.7477 25 20.7812V3.56658C25 1.60013 23.3999 0 21.4334 0ZM12.8736 18.5462C9.33363 18.5462 6.45381 15.6664 6.45381 12.1264C6.45381 8.58635 9.33363 5.70652 12.8736 5.70652C16.4137 5.70652 19.2935 8.58635 19.2935 12.1264C19.2935 15.6664 16.4137 18.5462 12.8736 18.5462ZM20.0068 7.13315C18.8269 7.13315 17.8668 6.17315 17.8668 4.99321C17.8668 3.81326 18.8269 2.85326 20.0068 2.85326C21.1867 2.85326 22.1467 3.81326 22.1467 4.99321C22.1467 6.17315 21.1867 7.13315 20.0068 7.13315Z" fill="#0197A4"/>
<path d="M20.0068 4.27979C19.6132 4.27979 19.2935 4.59948 19.2935 4.9931C19.2935 5.38672 19.6132 5.70642 20.0068 5.70642C20.4004 5.70642 20.7201 5.38672 20.7201 4.9931C20.7201 4.59948 20.4004 4.27979 20.0068 4.27979Z" fill="#0197A4"/>
<path d="M12.8736 7.1333C10.1207 7.1333 7.88043 9.37356 7.88043 12.1265C7.88043 14.8795 10.1207 17.1197 12.8736 17.1197C15.6266 17.1197 17.8668 14.8795 17.8668 12.1265C17.8668 9.37356 15.6266 7.1333 12.8736 7.1333Z" fill="#0197A4"/>
</svg>
