<svg width="12" height="9" viewBox="0 0 12 9" fill="none" xmlns="http://www.w3.org/2000/svg">
<path fill-rule="evenodd" clip-rule="evenodd" d="M7.26923 8.30769C5.54885 8.30769 4.15385 6.91269 4.15385 5.19231C4.15385 3.47123 5.54885 2.07692 7.26923 2.07692C8.98962 2.07692 10.3846 3.47123 10.3846 5.19231C10.3846 6.91269 8.98962 8.30769 7.26923 8.30769ZM2.76923 4.15385H2.07692C1.69477 4.15385 1.38462 3.84369 1.38462 3.46154C1.38462 3.07938 1.69477 2.76923 2.07692 2.76923H2.76923C3.15138 2.76923 3.46154 3.07938 3.46154 3.46154C3.46154 3.84369 3.15138 4.15385 2.76923 4.15385ZM10.1735 1.47531C9.81415 0.816231 9.07685 0 8.65385 0H5.88462C5.481 0 4.79423 0.742846 4.41969 1.38462H1.38462C0.619615 1.38462 0 2.00423 0 2.76923V7.61538C0 8.37969 0.619615 9 1.38462 9H9.69231C10.4573 9 11.0769 8.37969 11.0769 7.61538V2.76923C11.0769 2.17454 10.7003 1.67192 10.1735 1.47531ZM7.26923 3.46154C6.31315 3.46154 5.53846 4.23623 5.53846 5.19231C5.53846 6.14769 6.31315 6.92308 7.26923 6.92308C8.22531 6.92308 9 6.14769 9 5.19231C9 4.23623 8.22531 3.46154 7.26923 3.46154Z" fill="white"/>
</svg>

